<svg width="33" height="32" viewBox="0 0 33 32" fill="none" xmlns="http://www.w3.org/2000/svg">
<g clip-path="url(#clip0_6_2822)">
<path d="M27.1667 5.3335C27.8739 5.3335 28.5522 5.61445 29.0523 6.11454C29.5524 6.61464 29.8333 7.29292 29.8333 8.00016V24.0002C29.8333 24.7074 29.5524 25.3857 29.0523 25.8858C28.5522 26.3859 27.8739 26.6668 27.1667 26.6668H5.83332C5.12608 26.6668 4.4478 26.3859 3.9477 25.8858C3.44761 25.3857 3.16665 24.7074 3.16665 24.0002V22.6668H5.83332V24.0002H27.1667V9.8975L17.92 19.1442C17.5449 19.5191 17.0363 19.7297 16.506 19.7297C15.9757 19.7297 15.467 19.5191 15.092 19.1442L5.83332 9.8855V10.6668H3.16665V8.00016C3.16665 7.29292 3.44761 6.61464 3.9477 6.11454C4.4478 5.61445 5.12608 5.3335 5.83332 5.3335H27.1667ZM8.49999 17.3335C8.83983 17.3339 9.1667 17.464 9.41381 17.6973C9.66093 17.9306 9.80963 18.2494 9.82955 18.5887C9.84947 18.9279 9.73909 19.262 9.52097 19.5226C9.30285 19.7832 8.99345 19.9507 8.65599 19.9908L8.49999 20.0002H1.83332C1.49348 19.9998 1.16661 19.8697 0.919497 19.6364C0.672382 19.4031 0.523674 19.0842 0.503758 18.745C0.483842 18.4057 0.59422 18.0717 0.812341 17.8111C1.03046 17.5504 1.33986 17.383 1.67732 17.3428L1.83332 17.3335H8.49999ZM7.16665 13.3335C7.52028 13.3335 7.85942 13.474 8.10946 13.724C8.35951 13.9741 8.49999 14.3132 8.49999 14.6668C8.49999 15.0205 8.35951 15.3596 8.10946 15.6096C7.85942 15.8597 7.52028 16.0002 7.16665 16.0002H3.16665C2.81303 16.0002 2.47389 15.8597 2.22385 15.6096C1.9738 15.3596 1.83332 15.0205 1.83332 14.6668C1.83332 14.3132 1.9738 13.9741 2.22385 13.724C2.47389 13.474 2.81303 13.3335 3.16665 13.3335H7.16665Z" fill="#96BCC1"/>
</g>
<defs>
<clipPath id="clip0_6_2822">
<rect width="32" height="32" fill="white" transform="translate(0.5)"/>
</clipPath>
</defs>
</svg>
