<svg width="33" height="32" viewBox="0 0 33 32" fill="none" xmlns="http://www.w3.org/2000/svg">
<path d="M9.64266 3.2598C11.1667 4.37047 12.3533 5.88647 13.3667 7.33713L13.956 8.1958L14.512 9.0158C14.7901 9.42211 14.909 9.91653 14.8461 10.4049C14.7831 10.8932 14.5427 11.3413 14.1707 11.6638L11.5693 13.5958C11.4436 13.6866 11.3552 13.8198 11.3204 13.9709C11.2855 14.122 11.3067 14.2805 11.38 14.4171C11.9693 15.4878 13.0173 17.0825 14.2173 18.2825C15.4173 19.4825 17.088 20.5998 18.2333 21.2558C18.3769 21.3364 18.546 21.3589 18.7057 21.3188C18.8654 21.2786 19.0036 21.1788 19.092 21.0398L20.7853 18.4625C21.0966 18.0489 21.5559 17.7719 22.0669 17.6894C22.5779 17.6069 23.101 17.7253 23.5267 18.0198L24.4107 18.6318C26.0627 19.7785 27.8373 21.0811 29.1947 22.8185C29.4099 23.0955 29.5469 23.4253 29.5912 23.7733C29.6355 24.1214 29.5856 24.475 29.4467 24.7971C28.3307 27.4011 25.5067 29.6185 22.5693 29.5105L22.1693 29.4878L21.8587 29.4611L21.5147 29.4211L21.14 29.3705L20.7333 29.3038L20.52 29.2638L20.072 29.1678L19.8373 29.1145L19.3493 28.9891L18.836 28.8425L18.3 28.6691C15.8387 27.8345 12.7147 26.1945 9.50932 22.9891C6.30399 19.7838 4.66532 16.6611 3.83066 14.1998L3.65732 13.6638L3.51066 13.1505L3.38532 12.6625L3.28132 12.2011C3.25132 12.0566 3.22332 11.9117 3.19732 11.7665L3.13066 11.3598L3.07732 10.9851L3.03866 10.6411L3.01199 10.3305L2.99066 9.93047C2.88266 7.00247 5.12399 4.15847 7.71599 3.0478C8.02796 2.91309 8.36959 2.8618 8.70736 2.89897C9.04514 2.93613 9.36744 3.06048 9.64266 3.2598ZM20.4893 8.05313L20.644 8.07047C21.6145 8.24166 22.506 8.71572 23.1905 9.4247C23.8751 10.1337 24.3176 11.0412 24.4547 12.0171C24.5035 12.3547 24.4212 12.6982 24.2245 12.9769C24.0279 13.2556 23.7319 13.4483 23.3975 13.5154C23.063 13.5826 22.7156 13.519 22.4267 13.3377C22.1377 13.1565 21.9292 12.8714 21.844 12.5411L21.8133 12.3878C21.7597 12.0053 21.5964 11.6465 21.3432 11.3547C21.0901 11.063 20.7578 10.8508 20.3867 10.7438L20.18 10.6971C19.8452 10.6378 19.5457 10.4528 19.3428 10.1799C19.1399 9.9071 19.0489 9.56704 19.0884 9.22933C19.1279 8.89161 19.2949 8.58174 19.5554 8.36311C19.8158 8.14447 20.1499 8.03359 20.4893 8.05313ZM20.5 3.9998C22.6217 3.9998 24.6566 4.84265 26.1568 6.34295C27.6571 7.84324 28.5 9.87807 28.5 11.9998C28.4996 12.3396 28.3695 12.6665 28.1362 12.9136C27.9029 13.1607 27.5841 13.3094 27.2448 13.3294C26.9055 13.3493 26.5715 13.2389 26.3109 13.0208C26.0503 12.8027 25.8828 12.4933 25.8427 12.1558L25.8333 11.9998C25.8332 10.6459 25.3181 9.34269 24.3926 8.35451C23.4671 7.36633 22.2003 6.76715 20.8493 6.67847L20.5 6.66647C20.1464 6.66647 19.8072 6.52599 19.5572 6.27594C19.3071 6.02589 19.1667 5.68675 19.1667 5.33313C19.1667 4.97951 19.3071 4.64037 19.5572 4.39032C19.8072 4.14027 20.1464 3.9998 20.5 3.9998Z" fill="#B6B0DF"/>
</svg>
