<svg width="33" height="32" viewBox="0 0 33 32" fill="none" xmlns="http://www.w3.org/2000/svg">
<path d="M15.7934 21.704C15.9809 21.8913 16.235 21.9965 16.5 21.9965C16.765 21.9965 17.0192 21.8913 17.2067 21.704L20.2067 18.7053C20.3833 18.5158 20.4795 18.265 20.4749 18.006C20.4704 17.7469 20.3654 17.4997 20.1822 17.3165C19.999 17.1333 19.7518 17.0283 19.4927 17.0238C19.2336 17.0192 18.9829 17.1154 18.7934 17.292L16.5 19.5813L14.2067 17.2893C14.1144 17.1939 14.004 17.1177 13.882 17.0654C13.76 17.013 13.6287 16.9855 13.4959 16.9844C13.3632 16.9833 13.2315 17.0087 13.1086 17.059C12.9858 17.1094 12.8741 17.1837 12.7803 17.2776C12.6864 17.3716 12.6122 17.4832 12.562 17.6062C12.5118 17.7291 12.4866 17.8608 12.4878 17.9935C12.489 18.1263 12.5166 18.2575 12.5691 18.3795C12.6216 18.5015 12.6978 18.6118 12.7934 18.704L15.7934 21.704ZM16.5 12.0733C16.2171 12.0733 15.9458 11.961 15.7458 11.7609C15.5457 11.5609 15.4334 11.2896 15.4334 11.0067C15.4334 10.7238 15.5457 10.4525 15.7458 10.2524C15.9458 10.0524 16.2171 9.94 16.5 9.94C16.7829 9.94 17.0542 10.0524 17.2543 10.2524C17.4543 10.4525 17.5667 10.7238 17.5667 11.0067C17.5667 11.2896 17.4543 11.5609 17.2543 11.7609C17.0542 11.961 16.7829 12.0733 16.5 12.0733ZM15.4334 14.7613C15.4334 14.9014 15.4609 15.0401 15.5146 15.1695C15.5682 15.2989 15.6467 15.4165 15.7458 15.5156C15.8448 15.6146 15.9624 15.6932 16.0918 15.7468C16.2212 15.8004 16.3599 15.828 16.5 15.828C16.6401 15.828 16.7788 15.8004 16.9082 15.7468C17.0376 15.6932 17.1552 15.6146 17.2543 15.5156C17.3533 15.4165 17.4319 15.2989 17.4855 15.1695C17.5391 15.0401 17.5667 14.9014 17.5667 14.7613C17.5667 14.4784 17.4543 14.2071 17.2543 14.0071C17.0542 13.8071 16.7829 13.6947 16.5 13.6947C16.2171 13.6947 15.9458 13.8071 15.7458 14.0071C15.5457 14.2071 15.4334 14.4784 15.4334 14.7613Z" fill="white"/>
<path fill-rule="evenodd" clip-rule="evenodd" d="M16.5 2.668C13.8478 2.668 11.3043 3.72157 9.42893 5.59693C7.55357 7.4723 6.5 10.0158 6.5 12.668V19.3347C6.5 21.9868 7.55357 24.5304 9.42893 26.4057C11.3043 28.2811 13.8478 29.3347 16.5 29.3347C19.1522 29.3347 21.6957 28.2811 23.5711 26.4057C25.4464 24.5304 26.5 21.9868 26.5 19.3347V12.668C26.5 10.0158 25.4464 7.4723 23.5711 5.59693C21.6957 3.72157 19.1522 2.668 16.5 2.668ZM8.5 12.668C8.5 10.5463 9.34285 8.51144 10.8431 7.01115C12.3434 5.51085 14.3783 4.668 16.5 4.668C18.6217 4.668 20.6566 5.51085 22.1569 7.01115C23.6571 8.51144 24.5 10.5463 24.5 12.668V19.3347C24.5 21.4564 23.6571 23.4912 22.1569 24.9915C20.6566 26.4918 18.6217 27.3347 16.5 27.3347C14.3783 27.3347 12.3434 26.4918 10.8431 24.9915C9.34285 23.4912 8.5 21.4564 8.5 19.3347V12.668Z" fill="white"/>
</svg>
